<svg xmlns="http://www.w3.org/2000/svg" viewBox="0 0 1200 380" role="img" aria-label="Karvio logo">
<defs>
  <linearGradient id="gBlue" x1="0%" y1="0%" x2="100%" y2="100%">
    <stop offset="0%" stop-color="#88A8D6"/>
    <stop offset="55%" stop-color="#6789C4"/>
    <stop offset="100%" stop-color="#93C7D0"/>
  </linearGradient>
  <linearGradient id="gAccent" x1="0%" y1="0%" x2="100%" y2="100%">
    <stop offset="0%" stop-color="#93C7D0"/>
    <stop offset="100%" stop-color="#88A8D6"/>
  </linearGradient>
</defs>

<g fill="none" stroke="url(#gBlue)" stroke-linecap="round" stroke-linejoin="round">
  <polyline points="115.2,103.2 190.0,60.0 293.9,120.0 293.9,240.0 275.2,250.8" stroke-width="32.0"/>
  <polyline points="140.1,271.2 86.1,240.0 86.1,120.0 171.3,70.8" stroke-width="32.0"/>
  <polyline points="148.8,121.8 190.0,98.0 261.0,139.0 261.0,206.2" stroke-width="24.0"/>
  <polyline points="244.0,230.8 190.0,262.0 119.0,221.0 119.0,148.8" stroke-width="24.0"/>
</g>
<g fill="url(#gAccent)">
  <polygon points="178.0,184.0 206.0,168.0 348.0,252.0 320.0,268.0"/>
  <polygon points="208.0,199.0 230.0,186.0 344.0,253.0 322.0,266.0"/>
</g>


<text x="410" y="258" fill="#E7EDF3" font-family="Inter, Arial, sans-serif" font-size="155" font-weight="800" letter-spacing="0">Karvio</text>

</svg>
